<?xml version="1.0" standalone="no"?>
<!DOCTYPE svg PUBLIC "-//W3C//DTD SVG 20010904//EN"
 "http://www.w3.org/TR/2001/REC-SVG-20010904/DTD/svg10.dtd">
<svg version="1.0" xmlns="http://www.w3.org/2000/svg"
 width="512.000000pt" height="512.000000pt" viewBox="0 0 512.000000 512.000000"
 preserveAspectRatio="xMidYMid meet">
<metadata>
Created by potrace 1.11, written by Peter Selinger 2001-2013
</metadata>
<g transform="translate(0.000000,512.000000) scale(0.100000,-0.100000)"
fill="#000000" stroke="none">
<path d="M2409 5116 c-2 -2 -40 -6 -84 -10 -72 -6 -269 -36 -320 -49 -11 -3
-40 -10 -65 -16 -226 -53 -534 -183 -730 -308 -96 -61 -212 -142 -225 -158 -5
-6 -17 -16 -27 -21 -24 -14 -163 -141 -245 -225 -286 -295 -518 -703 -619
-1088 -21 -82 -54 -233 -59 -274 -4 -27 -9 -59 -11 -71 -18 -90 -25 -452 -11
-581 29 -264 90 -507 183 -734 111 -269 284 -539 481 -752 84 -91 234 -230
308 -286 77 -59 171 -123 270 -184 211 -132 579 -270 830 -312 17 -3 44 -8 60
-11 157 -30 459 -40 653 -23 78 7 297 42 334 53 9 3 25 7 35 9 47 9 175 47
238 71 39 14 81 29 95 34 49 15 216 95 317 151 80 45 197 121 201 132 2 4 8 7
13 7 8 0 133 93 149 110 3 3 19 16 35 29 56 43 243 231 310 312 282 341 457
714 551 1174 4 20 12 70 19 127 30 218 25 563 -10 746 -3 15 -8 43 -11 62 -33
205 -132 494 -244 707 -153 292 -329 517 -590 753 -47 43 -245 190 -295 220
-22 13 -42 26 -45 29 -28 32 -435 224 -495 235 -5 1 -14 4 -20 7 -5 3 -30 11
-55 18 -25 8 -56 17 -70 22 -28 9 -104 29 -135 35 -80 16 -188 34 -230 39 -27
4 -61 9 -75 11 -30 6 -406 15 -411 10z"/>
</g>
</svg>
